<svg xmlns="http://www.w3.org/2000/svg" viewBox="0 0 512 512">
  <defs>
    <linearGradient id="bg" x1="72" y1="48" x2="440" y2="464" gradientUnits="userSpaceOnUse">
      <stop offset="0" stop-color="#7dd3fc"/>
      <stop offset="0.52" stop-color="#14b8a6"/>
      <stop offset="1" stop-color="#07111f"/>
    </linearGradient>
    <linearGradient id="shine" x1="128" y1="96" x2="384" y2="392" gradientUnits="userSpaceOnUse">
      <stop offset="0" stop-color="#ffffff" stop-opacity="0.95"/>
      <stop offset="1" stop-color="#bae6fd" stop-opacity="0.78"/>
    </linearGradient>
    <filter id="shadow" x="-20%" y="-20%" width="140%" height="140%">
      <feDropShadow dx="0" dy="22" stdDeviation="18" flood-color="#03111f" flood-opacity="0.35"/>
    </filter>
  </defs>
  <rect width="512" height="512" rx="116" fill="#07111f"/>
  <rect x="32" y="32" width="448" height="448" rx="96" fill="url(#bg)"/>
  <circle cx="382" cy="118" r="42" fill="#ffffff" opacity="0.26"/>
  <path d="M115 164h67l73 185 74-185h68L286 404h-62L115 164Z" fill="#03111f" opacity="0.32"/>
  <path d="M104 146h70l82 205 82-205h70L292 405h-72L104 146Z" fill="url(#shine)" filter="url(#shadow)"/>
  <path d="M142 128c46-38 142-50 211-15" fill="none" stroke="#ffffff" stroke-width="18" stroke-linecap="round" opacity="0.52"/>
  <path d="M344 246c0 49-40 89-89 89s-89-40-89-89 40-89 89-89 89 40 89 89Z" fill="none" stroke="#03111f" stroke-width="22" opacity="0.18"/>
  <path d="M314 246c0 33-26 59-59 59s-59-26-59-59 26-59 59-59 59 26 59 59Z" fill="none" stroke="#ffffff" stroke-width="18" opacity="0.72"/>
  <circle cx="255" cy="246" r="16" fill="#ffffff"/>
</svg>
